<svg xmlns="http://www.w3.org/2000/svg" viewBox="0 0 900 900"><defs><linearGradient id="sky" x1="0" y1="0" x2="0" y2="1"><stop stop-color="#f4c664"/><stop offset="1" stop-color="#f7ead0"/></linearGradient><linearGradient id="green" x1="0" x2="1"><stop stop-color="#4d8663"/><stop offset="1" stop-color="#174d3d"/></linearGradient><filter id="shadow"><feDropShadow dx="0" dy="16" stdDeviation="14" flood-opacity=".18"/></filter></defs><rect width="900" height="900" fill="url(#sky)"/><circle cx="700" cy="150" r="85" fill="#e6a42e"/><path d="M0 560c170-126 324-142 463-49 125 84 271 75 437-34v423H0Z" fill="#4f8160"/><path d="M0 700c170-72 325-63 465 28 129 84 274 78 435-20v192H0Z" fill="#1f5640"/><g transform="translate(230 345)"><circle cx="205" cy="105" r="75" fill="#8e593d"/><path d="M100 280c15-105 57-163 126-172 72-9 126 48 156 172v190H100Z" fill="#f4f1e6"/><path d="M100 280c61 29 155 29 282 0" stroke="#a43d2b" stroke-width="26"/><path d="M151 82c16-78 102-103 158-49 22 21 33 47 33 76-66-20-130-29-191-27Z" fill="#263d32"/><path d="M176 111c18 13 35 20 52 20 18 0 35-7 52-20" stroke="#5f3d2c" stroke-width="8" fill="none" stroke-linecap="round"/></g><path d="M105 585c8-133 35-234 81-305" stroke="#153d31" stroke-width="15" fill="none"/><path d="M180 304c-49-28-88-21-117 20 50 14 89 7 117-20Zm9 42c44-19 79-12 104 22-44 13-79 6-104-22Zm-37 25c-52 2-88 24-108 65 51-3 87-25 108-65Z" fill="#246147"/></svg>