<svg xmlns="http://www.w3.org/2000/svg" viewBox="0 0 900 700"><defs><linearGradient id="sky" x1="0" y1="0" x2="0" y2="1"><stop stop-color="#f4c664"/><stop offset="1" stop-color="#f7ead0"/></linearGradient><linearGradient id="green" x1="0" x2="1"><stop stop-color="#4d8663"/><stop offset="1" stop-color="#174d3d"/></linearGradient><filter id="shadow"><feDropShadow dx="0" dy="16" stdDeviation="14" flood-opacity=".18"/></filter></defs><rect width="900" height="700" fill="#d9e7d9"/><circle cx="690" cy="120" r="75" fill="#efbd4e"/><path d="M0 330 190 150l140 130 135-185 175 190 120-120 140 155v380H0Z" fill="#8cad89"/><path d="M0 435 190 270l125 100 155-155 154 165 132-110 144 150v280H0Z" fill="#527b61"/><path d="M0 535c175-103 323-104 445-4 125 102 277 97 455-11v180H0Z" fill="#1e5540"/><path d="M110 650c175-92 382-86 620 19" stroke="#dfd1a4" stroke-width="24" fill="none"/><g transform="translate(350 421)" filter="url(#shadow)"><rect width="250" height="108" rx="10" fill="#a84432"/><path d="M25-61h180c25 0 45 20 45 45v47H0v-47c0-25 20-45 45-45Z" fill="#c85b3d"/><g fill="#dcebe2"><rect x="28" y="-40" width="48" height="42" rx="3"/><rect x="101" y="-40" width="48" height="42" rx="3"/><rect x="174" y="-40" width="48" height="42" rx="3"/></g><circle cx="46" cy="108" r="28" fill="#17251f"/><circle cx="203" cy="108" r="28" fill="#17251f"/></g></svg>